<mxfile host="app.diagrams.net" modified="2021-05-30T02:36:32.131Z" agent="5.0 (Windows NT 10.0; Win64; x64) AppleWebKit/537.36 (KHTML, like Gecko) Chrome/89.0.4389.128 Safari/537.36 OPR/75.0.3969.279" etag="g-lRtX7cYzE7-SmZM4Df" version="14.7.2" type="github">
  <diagram id="C5RBs43oDa-KdzZeNtuy" name="Page-1">
    <mxGraphModel dx="936" dy="620" grid="1" gridSize="10" guides="1" tooltips="1" connect="1" arrows="1" fold="1" page="1" pageScale="1" pageWidth="827" pageHeight="1169" math="0" shadow="0">
      <root>
        <mxCell id="WIyWlLk6GJQsqaUBKTNV-0" />
        <mxCell id="WIyWlLk6GJQsqaUBKTNV-1" parent="WIyWlLk6GJQsqaUBKTNV-0" />
        <mxCell id="2RKgZ_n6PoGsreSX-nNU-2" value="" style="rounded=0;whiteSpace=wrap;html=1;" vertex="1" parent="WIyWlLk6GJQsqaUBKTNV-1">
          <mxGeometry x="30" y="110" width="760" height="510" as="geometry" />
        </mxCell>
        <mxCell id="2RKgZ_n6PoGsreSX-nNU-3" value="BOOKS" style="verticalLabelPosition=bottom;verticalAlign=top;html=1;shape=card;whiteSpace=wrap;size=20;arcSize=12;" vertex="1" parent="WIyWlLk6GJQsqaUBKTNV-1">
          <mxGeometry x="380" y="140" width="100" height="60" as="geometry" />
        </mxCell>
        <mxCell id="2RKgZ_n6PoGsreSX-nNU-4" value="" style="endArrow=classic;html=1;exitX=0.5;exitY=1;exitDx=0;exitDy=0;exitPerimeter=0;entryX=0.5;entryY=0;entryDx=0;entryDy=0;entryPerimeter=0;" edge="1" parent="WIyWlLk6GJQsqaUBKTNV-1" source="2RKgZ_n6PoGsreSX-nNU-3" target="2RKgZ_n6PoGsreSX-nNU-5">
          <mxGeometry width="50" height="50" relative="1" as="geometry">
            <mxPoint x="390" y="370" as="sourcePoint" />
            <mxPoint x="440" y="320" as="targetPoint" />
          </mxGeometry>
        </mxCell>
        <mxCell id="2RKgZ_n6PoGsreSX-nNU-5" value="ID_BOOK1" style="verticalLabelPosition=bottom;verticalAlign=top;html=1;shape=card;whiteSpace=wrap;size=20;arcSize=12;" vertex="1" parent="WIyWlLk6GJQsqaUBKTNV-1">
          <mxGeometry x="160" y="280" width="100" height="60" as="geometry" />
        </mxCell>
        <mxCell id="2RKgZ_n6PoGsreSX-nNU-7" value="BOOK1.txt" style="rounded=0;whiteSpace=wrap;html=1;" vertex="1" parent="WIyWlLk6GJQsqaUBKTNV-1">
          <mxGeometry x="70" y="460" width="70" height="60" as="geometry" />
        </mxCell>
        <mxCell id="2RKgZ_n6PoGsreSX-nNU-8" value="BOOK1.doc" style="rounded=0;whiteSpace=wrap;html=1;" vertex="1" parent="WIyWlLk6GJQsqaUBKTNV-1">
          <mxGeometry x="140" y="460" width="70" height="60" as="geometry" />
        </mxCell>
        <mxCell id="2RKgZ_n6PoGsreSX-nNU-9" value="BOOK1.docx" style="rounded=0;whiteSpace=wrap;html=1;" vertex="1" parent="WIyWlLk6GJQsqaUBKTNV-1">
          <mxGeometry x="210" y="460" width="70" height="60" as="geometry" />
        </mxCell>
        <mxCell id="2RKgZ_n6PoGsreSX-nNU-10" value="BOOK1.pdf" style="rounded=0;whiteSpace=wrap;html=1;" vertex="1" parent="WIyWlLk6GJQsqaUBKTNV-1">
          <mxGeometry x="280" y="460" width="70" height="60" as="geometry" />
        </mxCell>
        <mxCell id="2RKgZ_n6PoGsreSX-nNU-12" value="" style="endArrow=classic;html=1;exitX=0.5;exitY=1;exitDx=0;exitDy=0;exitPerimeter=0;entryX=0.1;entryY=0.5;entryDx=0;entryDy=0;entryPerimeter=0;" edge="1" parent="WIyWlLk6GJQsqaUBKTNV-1" source="2RKgZ_n6PoGsreSX-nNU-5" target="2RKgZ_n6PoGsreSX-nNU-13">
          <mxGeometry width="50" height="50" relative="1" as="geometry">
            <mxPoint x="390" y="370" as="sourcePoint" />
            <mxPoint x="440" y="320" as="targetPoint" />
          </mxGeometry>
        </mxCell>
        <mxCell id="2RKgZ_n6PoGsreSX-nNU-13" value="" style="shape=curlyBracket;whiteSpace=wrap;html=1;rounded=1;flipH=1;rotation=-90;" vertex="1" parent="WIyWlLk6GJQsqaUBKTNV-1">
          <mxGeometry x="200" y="300" width="20" height="272.5" as="geometry" />
        </mxCell>
        <mxCell id="2RKgZ_n6PoGsreSX-nNU-14" value="ID_BOOK2" style="verticalLabelPosition=bottom;verticalAlign=top;html=1;shape=card;whiteSpace=wrap;size=20;arcSize=12;" vertex="1" parent="WIyWlLk6GJQsqaUBKTNV-1">
          <mxGeometry x="430" y="270" width="100" height="60" as="geometry" />
        </mxCell>
        <mxCell id="2RKgZ_n6PoGsreSX-nNU-15" value="" style="endArrow=classic;html=1;entryX=0.5;entryY=0;entryDx=0;entryDy=0;entryPerimeter=0;" edge="1" parent="WIyWlLk6GJQsqaUBKTNV-1" target="2RKgZ_n6PoGsreSX-nNU-14">
          <mxGeometry width="50" height="50" relative="1" as="geometry">
            <mxPoint x="430" y="200" as="sourcePoint" />
            <mxPoint x="220" y="290" as="targetPoint" />
          </mxGeometry>
        </mxCell>
        <mxCell id="2RKgZ_n6PoGsreSX-nNU-16" value="BOOK2.txt" style="rounded=0;whiteSpace=wrap;html=1;" vertex="1" parent="WIyWlLk6GJQsqaUBKTNV-1">
          <mxGeometry x="410" y="460" width="70" height="60" as="geometry" />
        </mxCell>
        <mxCell id="2RKgZ_n6PoGsreSX-nNU-18" value="BOOK2.pdf" style="rounded=0;whiteSpace=wrap;html=1;" vertex="1" parent="WIyWlLk6GJQsqaUBKTNV-1">
          <mxGeometry x="480" y="460" width="70" height="60" as="geometry" />
        </mxCell>
        <mxCell id="2RKgZ_n6PoGsreSX-nNU-19" value="" style="shape=curlyBracket;whiteSpace=wrap;html=1;rounded=1;flipH=1;rotation=-90;" vertex="1" parent="WIyWlLk6GJQsqaUBKTNV-1">
          <mxGeometry x="470" y="371.25" width="20" height="130" as="geometry" />
        </mxCell>
        <mxCell id="2RKgZ_n6PoGsreSX-nNU-20" value="" style="endArrow=classic;html=1;exitX=0.5;exitY=1;exitDx=0;exitDy=0;exitPerimeter=0;entryX=0.1;entryY=0.5;entryDx=0;entryDy=0;entryPerimeter=0;" edge="1" parent="WIyWlLk6GJQsqaUBKTNV-1" source="2RKgZ_n6PoGsreSX-nNU-14" target="2RKgZ_n6PoGsreSX-nNU-19">
          <mxGeometry width="50" height="50" relative="1" as="geometry">
            <mxPoint x="470" y="350" as="sourcePoint" />
            <mxPoint x="470" y="438.25" as="targetPoint" />
          </mxGeometry>
        </mxCell>
        <mxCell id="2RKgZ_n6PoGsreSX-nNU-21" value="&lt;font style=&quot;font-size: 30px&quot;&gt;...&lt;/font&gt;" style="text;html=1;strokeColor=none;fillColor=none;align=center;verticalAlign=middle;whiteSpace=wrap;rounded=0;" vertex="1" parent="WIyWlLk6GJQsqaUBKTNV-1">
          <mxGeometry x="570" y="300" width="40" height="20" as="geometry" />
        </mxCell>
        <mxCell id="2RKgZ_n6PoGsreSX-nNU-23" value="ID_BOOKn" style="verticalLabelPosition=bottom;verticalAlign=top;html=1;shape=card;whiteSpace=wrap;size=20;arcSize=12;" vertex="1" parent="WIyWlLk6GJQsqaUBKTNV-1">
          <mxGeometry x="640" y="270" width="100" height="60" as="geometry" />
        </mxCell>
        <mxCell id="2RKgZ_n6PoGsreSX-nNU-24" value="" style="endArrow=classic;html=1;entryX=0;entryY=0;entryDx=60;entryDy=0;entryPerimeter=0;exitX=0.5;exitY=1;exitDx=0;exitDy=0;exitPerimeter=0;" edge="1" parent="WIyWlLk6GJQsqaUBKTNV-1" source="2RKgZ_n6PoGsreSX-nNU-3" target="2RKgZ_n6PoGsreSX-nNU-23">
          <mxGeometry width="50" height="50" relative="1" as="geometry">
            <mxPoint x="440" y="210" as="sourcePoint" />
            <mxPoint x="490" y="280" as="targetPoint" />
          </mxGeometry>
        </mxCell>
        <mxCell id="2RKgZ_n6PoGsreSX-nNU-26" value="" style="shape=curlyBracket;whiteSpace=wrap;html=1;rounded=1;flipH=1;rotation=-90;" vertex="1" parent="WIyWlLk6GJQsqaUBKTNV-1">
          <mxGeometry x="680" y="371.25" width="20" height="130" as="geometry" />
        </mxCell>
        <mxCell id="2RKgZ_n6PoGsreSX-nNU-27" value="&lt;font style=&quot;font-size: 30px&quot;&gt;...&lt;/font&gt;" style="text;html=1;strokeColor=none;fillColor=none;align=center;verticalAlign=middle;whiteSpace=wrap;rounded=0;" vertex="1" parent="WIyWlLk6GJQsqaUBKTNV-1">
          <mxGeometry x="670" y="470" width="40" height="20" as="geometry" />
        </mxCell>
        <mxCell id="2RKgZ_n6PoGsreSX-nNU-28" value="" style="endArrow=classic;html=1;exitX=0.5;exitY=1;exitDx=0;exitDy=0;exitPerimeter=0;" edge="1" parent="WIyWlLk6GJQsqaUBKTNV-1" source="2RKgZ_n6PoGsreSX-nNU-23">
          <mxGeometry width="50" height="50" relative="1" as="geometry">
            <mxPoint x="689.5" y="340" as="sourcePoint" />
            <mxPoint x="690" y="430" as="targetPoint" />
            <Array as="points">
              <mxPoint x="689.5" y="380" />
            </Array>
          </mxGeometry>
        </mxCell>
      </root>
    </mxGraphModel>
  </diagram>
</mxfile>
